<svg xmlns="http://www.w3.org/2000/svg" viewBox="0 0 1600 1000" preserveAspectRatio="xMidYMid slice" role="img">
<defs>
<linearGradient id="g9" x1="0" y1="0" x2="0" y2="1"><stop offset="0" stop-color="#F5E9D0"/><stop offset="0.5" stop-color="#EBCB98"/><stop offset="1" stop-color="#D9A76C"/></linearGradient>
<radialGradient id="r10"><stop offset="0" stop-color="#F8E9C2" stop-opacity="0.55"/><stop offset="0.55" stop-color="#F8E9C2" stop-opacity="0.16"/><stop offset="1" stop-color="#F8E9C2" stop-opacity="0"/></radialGradient>
<linearGradient id="g11" x1="0" y1="0" x2="0" y2="1"><stop offset="0" stop-color="#F4ECD9" stop-opacity="0.05"/><stop offset="0.35" stop-color="#F4ECD9" stop-opacity="0.75"/><stop offset="1" stop-color="#F4ECD9" stop-opacity="0.9"/></linearGradient>
<radialGradient id="r12"><stop offset="0" stop-color="#000" stop-opacity="0"/><stop offset="0.72" stop-color="#000" stop-opacity="0"/><stop offset="1" stop-color="#000" stop-opacity="0.18"/></radialGradient>
<filter id="soft" x="-40%" y="-200%" width="180%" height="500%"><feGaussianBlur stdDeviation="14"/></filter>
<filter id="grain"><feTurbulence type="fractalNoise" baseFrequency="0.9" numOctaves="2" stitchTiles="stitch"/><feColorMatrix type="saturate" values="0"/></filter>
</defs>
<rect width="1600" height="1000" fill="url(#g9)"/><circle cx="384" cy="260" r="124" fill="url(#r10)"/><circle cx="384" cy="260" r="40" fill="#F8E9C2" opacity="0.92"/><path d="M0 1000 L0 420 Q114.28571428571429 415.6024489905685 228.57142857142858 399.2884923517704 Q342.8571428571429 383.5042840782553 457.14285714285717 437.6593040302396 Q571.4285714285714 403.57307097129524 685.7142857142858 383.8510977476835 Q800 425.2025076467544 914.2857142857143 455.776587985456 Q1028.5714285714287 402.1773080881685 1142.857142857143 389.6859869360924 Q1257.1428571428573 434.57287574745715 1371.4285714285716 435.61271373182535 Q1485.7142857142858 394.9094936084002 1600 405.04200406372547 L1600 1000 Z" fill="#C79A66" opacity="0.55"/><ellipse cx="800" cy="440" rx="1200" ry="26" fill="#F2E3C2" opacity="0.6" filter="url(#soft)"/><path d="M0 1000 L0 550 Q114.28571428571429 507.18837608825413 228.57142857142858 523.397483676672 Q342.8571428571429 542.5924706699327 457.14285714285717 518.6343778260052 Q571.4285714285714 526.1690661033615 685.7142857142858 537.5063535347581 Q800 601.2743034074083 914.2857142857143 539.1323752366006 Q1028.5714285714287 588.9667911378667 1142.857142857143 517.8427740186453 Q1257.1428571428573 498.43758127857 1371.4285714285716 531.7962672747672 Q1485.7142857142858 600.4682823395357 1600 511.3031551167369 L1600 1000 Z" fill="#9A7A4E" opacity="0.8"/><ellipse cx="800" cy="570" rx="1200" ry="26" fill="#EFDDBE" opacity="0.5" filter="url(#soft)"/><path d="M0 1000 L0 720 Q114.28571428571429 642.6547366585582 228.57142857142858 688.7002070713788 Q342.8571428571429 792.3836607076228 457.14285714285717 695.6639926414937 Q571.4285714285714 736.145130129531 685.7142857142858 745.8968919608742 Q800 793.2044512778521 914.2857142857143 755.0426626112312 Q1028.5714285714287 648.4561371635646 1142.857142857143 729.2999003548175 Q1257.1428571428573 675.7058212123811 1371.4285714285716 711.1836815904826 Q1485.7142857142858 719.9464947525412 1600 711.4462634269148 L1600 1000 Z" fill="#4E4530"/><path d="M0 1000 L0 880 Q114.28571428571429 894.4688321445137 228.57142857142858 859.3505007401109 Q342.8571428571429 851.2036881875247 457.14285714285717 847.2126276046038 Q571.4285714285714 915.0969313252717 685.7142857142858 870.4856989905238 Q800 867.7623236980289 914.2857142857143 904.7425131499767 Q1028.5714285714287 874.1265947464854 1142.857142857143 851.080408282578 Q1257.1428571428573 829.0138070564717 1371.4285714285716 888.2088174670935 Q1485.7142857142858 844.8875591177493 1600 861.339802108705 L1600 1000 Z" fill="#2E2A1C"/><rect x="995" y="470" width="26" height="250" rx="13" fill="url(#g11)"/>
      <ellipse cx="1008" cy="720" rx="62.4" ry="15.6" fill="#F4ECD9" opacity="0.5" filter="url(#soft)"/><g opacity="0.8"><path d="M790 200 q 10 -8 10 0 q 0 -8 10 0" fill="none" stroke="#2E2A1C" stroke-width="2.4" stroke-linecap="round"/><path d="M836 182 q 8 -6.4 8 0 q 0 -6.4 8 0" fill="none" stroke="#2E2A1C" stroke-width="1.92" stroke-linecap="round"/><path d="M753.5 170 q 6.5 -5.2 6.5 0 q 0 -5.2 6.5 0" fill="none" stroke="#2E2A1C" stroke-width="1.56" stroke-linecap="round"/></g><rect width="1600" height="1000" fill="url(#r12)"/><rect width="1600" height="1000" filter="url(#grain)" opacity="0.05"/>
</svg>